<svg xmlns="http://www.w3.org/2000/svg" version="1.1" xmlns:xlink="http://www.w3.org/1999/xlink" xmlns:svgjs="http://svgjs.dev/svgjs" viewBox="0 0 17.169762039996662 17.0062562508994"><g transform="matrix(1,0,0,1,5.178822030184352,4.723494225580199)"><g><path d=" M -2.8420002560377475 4.862697390528685 L -2.796932515842712 4.853483336387712 L -2.7001849473624993 5.326694608435585 L -3.3859983851130404 5.4669084757982125 L -3.4797413707211966 5.008393205987851 L -3.434673630526161 4.999179151846878 L -3.351146226682996 5.407728014049701 L -3.0807397855127827 5.352443689203865 L -3.1554537462645826 4.987003100231076 L -3.1113657395520478 4.977989351614907 L -3.036651778800248 5.343429940587696 L -2.755468269322526 5.285942254969019 L -2.8420002560377475 4.862697390528685 M -3.5708207865647528 4.123754802880389 L -2.8729712627523387 4.068927418164474 L -2.8696816196693837 4.110798389593219 L -3.4384528310528926 4.633954493544358 L -2.8323206732272532 4.5863329936768205 L -2.8283261066265224 4.637176316126011 L -3.526175630438936 4.692003700841926 L -3.5295435983571997 4.6491358015220206 L -2.960694062138382 4.126976625462041 L -3.566826219964022 4.174598125329579 L -3.5708207865647528 4.123754802880389 M -2.8921813833145555 3.754119383133124 Q -2.9214448458155458 3.822501762167881 -2.964973779307199 3.859787576482165 L -3.002021693447848 3.835283453200009 Q -2.9615704872939936 3.7998758280226776 -2.934585896441294 3.7384076911018926 Q -2.9076013055885945 3.676939554181107 -2.904836596260362 3.6079949649638934 Q -2.9008297711469817 3.5080752704461915 -2.936755774255884 3.4555936326990793 Q -2.972681777364787 3.403111994951967 -3.033632791020585 3.400667831632805 Q -3.0805950474439046 3.398784623829516 -3.1096544046894734 3.424641030317549 Q -3.1387137619350427 3.4504974368055823 -3.15530444615805 3.489864290845656 Q -3.1718951303810576 3.5292311448857294 -3.1906069225809883 3.5965354451396254 Q -3.2126769198766545 3.672712313146713 -3.2325256385675627 3.718453742577036 Q -3.2523743572584705 3.7641951720073585 -3.291146460864457 3.7951665133080943 Q -3.329918564470444 3.8261378546088296 -3.392867972016596 3.8236135547874 Q -3.4438270162206237 3.8215700739795757 -3.4852110436100343 3.7928888557866096 Q -3.526595070999445 3.764207637593644 -3.549351206690944 3.7077505008579745 Q -3.572107342382443 3.651293364122305 -3.5687816775383374 3.568360017672613 Q -3.566457718972577 3.5104065948523457 -3.5472275488410747 3.4551327261917075 Q -3.527997378709572 3.3998588575310693 -3.497377869002953 3.360053762061692 L -3.4571720910222377 3.3806813023165416 Q -3.487831668979991 3.4214855947310956 -3.5048430698399033 3.471344016695528 Q -3.5218544706998154 3.52120243865996 -3.523817815005372 3.5701630889736338 Q -3.527704435365351 3.6670851926558043 -3.4907391670601373 3.7186077017088732 Q -3.453773898754924 3.7701302107619425 -3.391823688153949 3.7726144423322383 Q -3.3448614317306293 3.774497650135527 -3.31580207448506 3.7486412436474943 Q -3.286742717239491 3.722784837159461 -3.2701520330164837 3.6834179831193876 Q -3.2535613487934762 3.644051129079314 -3.233810291397235 3.5757877001313747 Q -3.2117402941015687 3.499610832124287 -3.1919116095362274 3.454369001166553 Q -3.172082924970886 3.4091271702088184 -3.1343100183100763 3.378115760656949 Q -3.096537111649267 3.34710435110508 -3.034586901048292 3.349588582675376 Q -2.9836278568442642 3.3516320634832 -2.942763462053009 3.3807928460231875 Q -2.901899067261754 3.409953628563175 -2.8792030339469554 3.46790956071661 Q -2.8565070006321567 3.5258654928700452 -2.8598326654762625 3.6087988393197374 Q -2.8629179208135653 3.6857370040983675 -2.8921813833145555 3.754119383133124 M -2.8081231217295515 2.66801999660893 L -2.762619289766021 2.6747580435540597 L -2.8333687826898806 3.152548279171131 L -3.525818399526216 3.0500127821800307 L -3.457266095823594 2.587060752638023 L -3.411762263860064 2.5937987995831526 L -3.472844124210477 3.0063009284699413 L -3.199821132429293 3.046729210140718 L -3.1451843604611778 2.6777524857407853 L -3.1006697422359846 2.684344053404499 L -3.1553065142040997 3.053320777804432 L -2.8714021713012023 3.095360331570783 L -2.8081231217295515 2.66801999660893 M -2.537754027620067 1.8238249981909518 L -3.1134410877158962 1.6583366033162008 L -2.708787522136586 2.0804035314969704 L -2.715734475859675 2.104418939758528 L -3.2813034040472675 2.2458289375265004 L -2.7078154547612865 2.4117221924338668 L -2.7217093622074646 2.4597530089569806 L -3.39414079353106 2.2652383047104876 L -3.382192033127347 2.22393180250061 L -2.7755227377341796 2.073590969633563 L -3.2082403119011977 1.622585979631223 L -3.1965694296464084 1.582240093751807 L -2.523860120173889 1.7757941816678375 L -2.537754027620067 1.8238249981909518 M -2.479384339974508 0.9107863601468854 Q -2.422139856632176 0.8932273417554868 -2.356479170673235 0.9227684033376529 Q -2.275315267196211 0.9592844377933859 -2.2582104904852613 1.0382554870055407 Q -2.241105713774312 1.1172265362176952 -2.293623156587051 1.2339566445891461 L -2.421634423443104 1.518486283744557 L -3.060002203599475 1.2312815183623866 L -2.940196787182913 0.9649909586400149 Q -2.8934234396778162 0.8610282058716916 -2.8249640048506177 0.8221977309436079 Q -2.756504570023419 0.7833672560155241 -2.6780765284613506 0.8186524129053336 Q -2.623359290162233 0.8432699642238054 -2.5988933917667003 0.8888185077317977 Q -2.574427493371168 0.9343670512397901 -2.580168118068057 0.9909978311045373 Q -2.53662882331684 0.9283453785382838 -2.479384339974508 0.9107863601468854 M -2.998951310226088 1.2028247367750162 L -2.7445161521351915 1.3172963504059096 L -2.646456239383279 1.0993393511810916 Q -2.6087093273616224 1.0154395857891116 -2.620774213517528 0.9557324796622437 Q -2.632839099673433 0.896025373535376 -2.6957639237174185 0.8677151895191335 Q -2.7577767937897515 0.8398152980248655 -2.810460639621135 0.8703916350915417 Q -2.8631444854525188 0.900967972158218 -2.9008913974741755 0.9848677375501981 L -2.998951310226088 1.2028247367750162 M -2.3027333026883174 1.0604415004719434 Q -2.313567311278299 0.9979985324301197 -2.381051905180544 0.9676368858040046 Q -2.4485364990827887 0.9372752391778895 -2.50199524549427 0.9707925844205089 Q -2.5554539919057513 1.0043099296631282 -2.5973038291471533 1.097329234771628 L -2.704390177382505 1.3353492213727889 L -2.4408354795750893 1.4539237602234278 L -2.3337491313397374 1.2159037736222666 Q -2.2918992940983354 1.1228844685137669 -2.3027333026883174 1.0604415004719434 M -2.68422213216418 0.45556051925134766 L -2.6582462729663563 0.411671400566475 L -2.095432868654459 0.7447735949856247 L -1.890172647934402 0.39796350027966976 L -1.850586384022556 0.4213927066149616 L -2.0818224639404366 0.8120919200057892 L -2.68422213216418 0.45556051925134766 M -1.5056821616851104 -0.12762968098421545 L -1.4687699599022812 -0.10017992033783263 L -1.7569924466893014 0.28739819838187275 L -2.318699865123657 -0.13031555058482303 L -2.039428387243066 -0.5058570817666493 L -2.002516185460237 -0.4784073211202664 L -2.2513542330589686 -0.14379018756722894 L -2.029881022361994 0.020908376311068233 L -1.8072992675554547 -0.278401433797524 L -1.7711895049418176 -0.25154840707823656 L -1.993771259748357 0.04776140303035581 L -1.7634712181902712 0.2190240401067011 L -1.5056821616851104 -0.12762968098421545 M -1.2468446461453884 -1.256373902429288 Q -1.1494924388998728 -1.2637085969986748 -1.0722263646644987 -1.1840157254714567 Q -0.9956563811880019 -1.1050408077417813 -1.005997243573862 -1.0079618884795816 Q -1.016338105959722 -0.9108829692173818 -1.1111080072353325 -0.8189989890455855 L -1.2546987667438334 -0.6797808372701368 L -1.0952939829609445 -0.5153694176329033 L -1.1319096266356121 -0.47986878893016394 L -1.6191731578496829 -0.9824364472099167 L -1.4389667546665144 -1.157155227688105 Q -1.344196853390904 -1.249039207859901 -1.2468446461453884 -1.256373902429288 M -1.0544665299489024 -1.0062361195801321 Q -1.0462157030788797 -1.0824852104334721 -1.109559962136709 -1.14781900600984 Q -1.1729042211945382 -1.213152801586208 -1.2497199878139695 -1.2076221597908046 Q -1.3265357544334009 -1.202091517995401 -1.4069465797581613 -1.1241293530011498 L -1.5505373392666622 -0.984911201225701 L -1.2867189416521865 -0.712806711957092 L -1.1431281821436858 -0.8520248637325407 Q -1.0627173568189252 -0.9299870287267921 -1.0544665299489024 -1.0062361195801321 M -0.5216335206274898 -1.089725539291894 Q -0.6159635599151523 -1.077352435882157 -0.7024759813968257 -1.113860666863366 Q -0.788988402878499 -1.1503688978445747 -0.8487957710307927 -1.2305130100094495 Q -0.9086031391830864 -1.310657122174324 -0.918978654108129 -1.403982352900212 Q -0.9293541690331715 -1.4973075836260998 -0.8906449821271422 -1.5842147113491705 Q -0.8519357952211128 -1.6711218390722409 -0.769387359691292 -1.7327234282691033 Q -0.6868389241614712 -1.794325017465966 -0.5928079217145701 -1.8070988414365274 Q -0.4987769192676691 -1.819872665407089 -0.4122644977859957 -1.78336443442588 Q -0.32575207630432235 -1.746856203444671 -0.26534663447050566 -1.6659106501581478 Q -0.20494119263668897 -1.5849650968716245 -0.1945656777116465 -1.4916398661457366 Q -0.184190162786604 -1.3983146354198486 -0.22319838653339474 -1.3118082282576025 Q -0.2622066102801856 -1.2253018210953563 -0.34475504581000643 -1.163700231898494 Q -0.42730348133982726 -1.1020986427016313 -0.5216335206274898 -1.089725539291894 M -0.26935831776035135 -1.3285193248440819 Q -0.23637894538420784 -1.4030402010981602 -0.24568405394397635 -1.4840628211168372 Q -0.2549891625037449 -1.5650854411355142 -0.3070215727962404 -1.6348108187189552 Q -0.359053983088736 -1.704536196302396 -0.4340772636237017 -1.7365167744361922 Q -0.5091005441586673 -1.7684973525699883 -0.5899258110566459 -1.7580917660478095 Q -0.6707510779546243 -1.7476861795256309 -0.741277896659714 -1.6950556955516123 Q -0.8118047153648036 -1.642425211577594 -0.8451848083017715 -1.567605298482754 Q -0.8785649012387393 -1.492785385387914 -0.8692597926789708 -1.4117627653692373 Q -0.8599546841192023 -1.33074014535056 -0.8079222738267067 -1.261014767767119 Q -0.7558898635342112 -1.1912893901836783 -0.6808665829992454 -1.1593088120498822 Q -0.6058433024642798 -1.127328233916086 -0.5246173150054769 -1.1380328572790261 Q -0.4433913275466741 -1.1487374806419663 -0.3728645088415845 -1.201367964615985 Q -0.30233769013649486 -1.2539984485900033 -0.26935831776035135 -1.3285193248440819 M 0.14764240378629218 -1.5898863917114838 Q 0.046030936791484844 -1.6216095658143883 -0.025706920018790325 -1.7510610235128956 L -0.22104716525217472 -2.1035538441378856 L -0.17643889266687823 -2.128274321822507 L 0.017931922069070017 -1.7775308452204703 Q 0.08046018915370175 -1.6646981557400145 0.16308761374876624 -1.6373173466798914 Q 0.2457150383438308 -1.609936537619768 0.3436783036291877 -1.6642246454761924 Q 0.4407668969030683 -1.7180280380838988 0.46135076966221916 -1.8026052464927549 Q 0.48193464242137 -1.8871824549016112 0.4194063753367383 -2.0000151443820666 L 0.22503556060079005 -2.350758620984104 L 0.2696438331860865 -2.375479098668726 L 0.46498407841947087 -2.022986278043736 Q 0.5367219352297461 -1.8935348203452285 0.5093192805317842 -1.790316147056408 Q 0.4819166258338223 -1.6870974737675875 0.36558524830746086 -1.6226303456880835 Q 0.24925387078109948 -1.5581632176085796 0.14764240378629218 -1.5898863917114838 M 1.3057451910180826 -2.057255909476903 L 1.0638029854589792 -2.2125265415011093 Q 1.031304073032924 -2.194146642395739 1.0025199002108165 -2.182637020553687 L 0.8168155594230263 -2.108381395766252 L 0.9018382498046392 -1.8957499255642323 L 0.8544836429037528 -1.8768147412434364 L 0.5945889561477307 -2.5267799340007016 L 0.8276479038364073 -2.6199707431089325 Q 0.9502127687563487 -2.6689794554686395 1.0430567792978436 -2.638792708267743 Q 1.1359007898393383 -2.608605961066847 1.1771126615963645 -2.505540051929623 Q 1.20792874588315 -2.4284727505026904 1.189443787468195 -2.36023195396281 Q 1.17095882905324 -2.2919911574229292 1.1061450112926177 -2.2413041864412966 L 1.359599449846542 -2.0787900406652593 L 1.3057451910180826 -2.057255909476903 M 0.9858123846336435 -2.2244204972309394 Q 1.089806815474806 -2.266003647111903 1.126211328872314 -2.333870880769174 Q 1.1626158422698218 -2.401738114426446 1.128829532991539 -2.48623358948489 Q 1.0950432237132561 -2.5707290645433347 1.021882176045968 -2.5947854795760197 Q 0.9487211283786797 -2.618841894608704 0.8447266975375173 -2.577258744727741 L 0.6590223567497272 -2.5030031199403058 L 0.8001080438458534 -2.1501648724435047 L 0.9858123846336435 -2.2244204972309394 M 1.6811989820037991 -2.899428315474726 L 1.7309106419881684 -2.9108191390445324 L 1.8769812030598045 -2.2733402051273264 L 2.269800790779428 -2.363350046276974 L 2.2800748669404305 -2.3185120784479345 L 1.8375436192364372 -2.217111413728481 L 1.6811989820037991 -2.899428315474726 M 2.284552057828145 -3.023125751422708 L 2.329978489834908 -3.0303672481695787 L 2.366643716631986 -2.77495452111018 L 2.3291175336698777 -2.7689724151018953 L 2.284552057828145 -3.023125751422708 M 3.1431015842686034 -2.4600663666908216 L 3.1469712046215874 -2.4142294161124536 L 2.665683223548721 -2.3735984024061203 L 2.6067976964380932 -3.0711172155552022 L 3.073138845800622 -3.110486396537736 L 3.0770084661536066 -3.064649445959368 L 2.661486544606225 -3.029570496237751 L 2.6847042667241294 -2.7545487927675416 L 3.056382148587854 -2.7859263664993477 L 3.060167646759252 -2.7410858713683353 L 2.688489764895527 -2.709708297636529 L 2.7126328310108843 -2.423725584245406 L 3.1431015842686034 -2.4600663666908216 M 2.907952691472235 -3.272163650405428 L 2.979697483681855 -3.278220447479664 L 2.8331803958742094 -3.147431522182578 L 2.7793718017169944 -3.1428889243769014 L 2.907952691472235 -3.272163650405428 M 3.3934673485772207 -3.119774752745317 L 3.6702458215396203 -3.1086987920825875 Q 3.779158650250456 -3.1043403815690946 3.861791728717965 -3.0559976019326016 Q 3.9444248071854737 -3.0076548222961086 3.9882083788697544 -2.9263390867305525 Q 4.031991950554035 -2.8450233511649965 4.027953423380982 -2.7441041245613778 Q 4.02391489620793 -2.6431848979577595 3.973773643132407 -2.5656277916423713 Q 3.9236323900568846 -2.488070685326983 3.8374006240094274 -2.4464854412572814 Q 3.7511688579619706 -2.40490019718758 3.6422560292511346 -2.409258607701073 L 3.3654775562887354 -2.4203345683638022 L 3.3934673485772207 -3.119774752745317 M 3.640098557405055 -2.4553817614877924 Q 3.737020982955065 -2.4515031759849593 3.8125012410226917 -2.487013465226874 Q 3.8879814990903188 -2.522523754468789 3.9307085034376987 -2.589869155941339 Q 3.973435507785079 -2.657214557413889 3.976994209947472 -2.7461433808566817 Q 3.9805529121098653 -2.8350722042994745 3.9433438953850724 -2.905616439176423 Q 3.9061348786602794 -2.9761606740533715 3.8337334977443858 -3.017588805093423 Q 3.7613321168284926 -3.059016936133475 3.6644096912784825 -3.0628955216363076 L 3.442587232803202 -3.0717722843335133 L 3.4182760989297747 -2.4642585241849977 L 3.640098557405055 -2.4553817614877924 M 4.300891076717186 -2.4256284219492557 Q 4.241839898372989 -2.514195957401936 4.26747611875854 -2.6599587242676326 L 4.337282853997576 -3.0568667989086853 L 4.387511915552647 -3.048032695937988 L 4.318051615724228 -2.6530943884167426 Q 4.2957065317395235 -2.52604440918921 4.342728728634124 -2.4527920167422357 Q 4.389750925528724 -2.379539624295262 4.5000578842379 -2.3601392413007907 Q 4.609379959387172 -2.340912076011627 4.678574022561168 -2.393724779232283 Q 4.7477680857351645 -2.4465374824529387 4.770113169719868 -2.573587461680472 L 4.839573469548287 -2.9685257692017175 L 4.889802531103358 -2.959691666231021 L 4.819995795864323 -2.562783591589968 Q 4.794359575478772 -2.4170208247242715 4.708140428737225 -2.3540029008044887 Q 4.621921281995677 -2.2909849768847064 4.490931768528531 -2.3140229316906407 Q 4.359942255061385 -2.3370608864965754 4.300891076717186 -2.4256284219492557 M 5.148442722130212 -2.2105345973510544 Q 5.08307939464813 -2.278724665692933 5.061447915435931 -2.3700993290690144 Q 5.039816436223732 -2.461473992445096 5.0694631873209275 -2.55802486064099 Q 5.099109938418123 -2.6545757288368845 5.168293632261467 -2.718064834250257 Q 5.237477326104813 -2.7815539396636297 5.32984561498236 -2.8013111968071196 Q 5.422213903859907 -2.82106845395061 5.520676670435917 -2.7908346384752516 Q 5.5933288088803526 -2.7685261921050848 5.6473180184116 -2.726319376847462 Q 5.701307227942847 -2.6841125615898385 5.730235396419578 -2.625018051958386 L 5.689958460098032 -2.6028647587370566 Q 5.634021899826866 -2.7068652453947166 5.508792555929221 -2.7453179621643464 Q 5.424669027204085 -2.771148794803487 5.344099397956637 -2.7540451448149956 Q 5.26352976870919 -2.7369414948265036 5.203641832586577 -2.6815818966797162 Q 5.143753896463963 -2.626222298532929 5.118216596013903 -2.543054718997852 Q 5.092679295563844 -2.459887139462775 5.1111791930260155 -2.3804579018113334 Q 5.129679090488188 -2.301028664159892 5.186766144609144 -2.2416563789437154 Q 5.2438531987301 -2.1822840937275387 5.327976727455235 -2.156453261088398 Q 5.452250122162822 -2.118294076507849 5.558162507200598 -2.173643572400854 L 5.579066319042788 -2.1327042190783314 Q 5.521959060414267 -2.100027606464182 5.4529620329284745 -2.0950617029084566 Q 5.383965005442682 -2.0900957993527314 5.312268816188305 -2.1121107135338173 Q 5.213806049612294 -2.142344529009175 5.148442722130212 -2.2105345973510544 M 6.198331249412265 -1.981198221346823 L 5.826295556384701 -2.1437572663535556 L 5.6658637619369685 -1.9988723488145632 L 5.615464838004663 -2.0208938943204013 L 6.190801844555373 -2.5334086052246536 L 6.237535392201692 -2.512988626664695 L 6.2523239676947036 -1.7426216374739016 L 6.201925043762398 -1.7646431829797398 L 6.198331249412265 -1.981198221346823 M 6.198137556722032 -2.0282084594140968 L 6.191288509100476 -2.4720835438091076 L 5.861839282482832 -2.1751522266985077 L 6.198137556722032 -2.0282084594140968 M 6.797778546154638 -2.1805188541850207 L 6.578500708116901 -2.3047010982680463 L 6.6011688955288825 -2.3447280052114428 L 7.084102229302469 -2.0712313962190647 L 7.061434041890488 -2.031204489275668 L 6.842156203852752 -2.155386733358694 L 6.519873713256327 -1.5863085346417107 L 6.475496055558215 -1.6114406554680374 L 6.797778546154638 -2.1805188541850207 M 7.257631500397949 -1.953487921902108 L 7.30004490090579 -1.9251664908407822 L 6.911319376534649 -1.343021777988057 L 6.868905976026808 -1.3713432090493831 L 7.257631500397949 -1.953487921902108 M 7.253323950023994 -1.1513307582704264 Q 7.218388991613929 -1.2398225583475355 7.232769382622342 -1.332615092284513 Q 7.247149773630754 -1.4254076262214908 7.310349263649615 -1.5029048807622556 Q 7.373548753668474 -1.5804021353030204 7.461551536490613 -1.6131551537220816 Q 7.549554319312753 -1.6459081721411428 7.643264803440357 -1.6294888187869452 Q 7.736975287567962 -1.6130694654327473 7.816797459744949 -1.547973990713322 Q 7.896619631921936 -1.4828785159938969 7.931870587782096 -1.3947742021894918 Q 7.967121543642255 -1.3066698883850867 7.952741152633843 -1.213877354448109 Q 7.93836076162543 -1.1210848205111312 7.874529276706381 -1.0428125934249588 Q 7.810697791787334 -0.9645403663387864 7.722695008965195 -0.9317873479197252 Q 7.634692226143055 -0.899034329500664 7.541297739465545 -0.9158411691275655 Q 7.447903252788034 -0.9326480087544671 7.368081080611047 -0.9977434834738923 Q 7.288258908434059 -1.0628389581933175 7.253323950023994 -1.1513307582704264 M 7.546285271647271 -0.9646789057943711 Q 7.626588118378757 -0.9508061696972868 7.702917633203767 -0.9795299432407936 Q 7.779247148028777 -1.0082537167843004 7.834230704345184 -1.0756763282347657 Q 7.889214260661592 -1.1430989396852311 7.901996026763174 -1.2236462950442026 Q 7.914777792864756 -1.3041936504031741 7.885034538148357 -1.3800641901328703 Q 7.855291283431958 -1.4559347298625664 7.787093699436085 -1.5115502810791628 Q 7.718896115440212 -1.5671658322957591 7.638205782436021 -1.5813545658429375 Q 7.557515449431831 -1.5955432993901162 7.481185934606821 -1.5668195258466096 Q 7.404856419781812 -1.5380957523031027 7.3498728634654045 -1.4706731408526372 Q 7.294889307148996 -1.403250529402172 7.282107541047414 -1.3227031740432005 Q 7.269325774945832 -1.2421558186842288 7.299456515934935 -1.1659692815044385 Q 7.329587256924038 -1.089782744324648 7.397784840919911 -1.0341671931080518 Q 7.465982424915784 -0.9785516418914554 7.546285271647271 -0.9646789057943711 M 8.703559382233442 -0.6842339349607565 L 8.191348990314518 -0.20711705786431178 L 8.162721977688731 -0.23784968137944712 L 8.28249221756259 -1.0012945645508249 L 7.8376009057244405 -0.5868844770156272 L 7.80283953325027 -0.6242026627125772 L 8.315049925169193 -1.1013195398090219 L 8.34435853333369 -1.0698551871625739 L 8.223906697921121 -0.3071420331225089 L 8.668798009759271 -0.7215521206577065 L 8.703559382233442 -0.6842339349607565 M 8.937748377922826 0.4960671406069496 L 8.71560858908035 0.156229070030653 L 8.502016123290915 0.18951958756926743 L 8.471923294753141 0.14348241052075433 L 9.234030835173547 0.030009520214926755 L 9.26193509436312 0.07269853893263889 L 8.852187219003193 0.7252249204974197 L 8.82209439046542 0.6791877434489066 L 8.937748377922826 0.4960671406069496 M 8.96334537557498 0.4566362680424764 L 9.200835176968596 0.08157548065725706 L 8.76254413787747 0.14944274119148906 L 8.96334537557498 0.4566362680424764 M 9.013801859105525 0.8823766386099023 Q 9.050599385825535 0.7824907435731653 9.183497643362072 0.7173596976445722 L 9.545376006789262 0.5400096198795517 L 9.567819813156547 0.5858056410576824 L 9.2077373721285 0.7622755695533976 Q 9.091900377383816 0.8190451974235902 9.060395264055767 0.9001896848160604 Q 9.028890150727717 0.9813341722085307 9.078178509808815 1.081905826560504 Q 9.12702679425526 1.1815795197129062 9.210460714472323 1.2063944538698363 Q 9.293894634689385 1.2312093880267665 9.40973162943407 1.174439760156574 L 9.769814070462116 0.9979698316608587 L 9.792257876829403 1.0437658528389895 L 9.430379513402212 1.22111593060401 Q 9.297481255865677 1.286246976532603 9.195772720534398 1.2536835946325895 Q 9.09406418520312 1.221120212732576 9.035534258794316 1.1016913731896076 Q 8.977004332385514 0.9822625336466393 9.013801859105525 0.8823766386099023 M 10.024632653811038 1.812234175567449 L 9.950817145230154 1.5712875617855877 L 9.994799463618905 1.5578133022827279 L 10.15736933370776 2.0884695350165887 L 10.113387015319006 2.101943794519449 L 10.039571506738122 1.8609971807375874 L 9.414257675732815 2.052566000626073 L 9.399318822805732 2.0038029954559344 L 10.024632653811038 1.812234175567449 M 9.582791855730456 2.5388067640008045 Q 9.61228732683757 2.449072338142222 9.682792645904518 2.3870541957702693 Q 9.753297964971466 2.325036053398317 9.852459954629937 2.3058553389441214 Q 9.951621944288409 2.2866746244899256 10.040168529426134 2.3179276605096035 Q 10.128715114563862 2.349180696529282 10.189545416214958 2.421443580508795 Q 10.250375717866055 2.493706464488308 10.269936248448056 2.5948320579023916 Q 10.284369261304679 2.669449000615696 10.272469231388204 2.7369370683609424 Q 10.260569201471728 2.804425136106189 10.221988574212642 2.8577218076748285 L 10.18351205420013 2.8325711136938128 Q 10.249049332690234 2.734337386654112 10.224171376318951 2.605721340661442 Q 10.207459466695493 2.5193227754144583 10.154514010982217 2.4562293627684975 Q 10.10156855526894 2.3931359501225367 10.024565292263553 2.3662705916376208 Q 9.947562029258163 2.339405233152705 9.862145265888987 2.3559272347122597 Q 9.77672850251981 2.3724492362718146 9.715297700754462 2.426091631767043 Q 9.653866898989113 2.4797340272622717 9.628268204477859 2.558020085020467 Q 9.602669509966605 2.636306142778662 9.619381419590061 2.7227047080256463 Q 9.644069467897442 2.8503389521405094 9.74268301106495 2.9178398343862275 L 9.716360607142224 2.9555244605848365 Q 9.660688254131873 2.9204589631508786 9.623894137064969 2.861880443629923 Q 9.587100019998063 2.8033019241089683 9.572856915205344 2.7296667832734705 Q 9.553296384623343 2.628541189859387 9.582791855730456 2.5388067640008045 M 10.38450620362238 3.699409983152941 L 9.685941968314603 3.744220798241055 L 9.682677180358183 3.6933254039543453 L 10.014994166583168 3.6720082590624283 L 9.985034935924258 3.2049681703138004 L 9.652717949699273 3.2262853152057174 L 9.649453161742853 3.1753899209190077 L 10.34801739705063 3.1305791058308943 L 10.351282185007049 3.1814745001176035 L 10.029942636765472 3.202087475058136 L 10.059901867424383 3.6691275638067635 L 10.38124141566596 3.6485145888662314 L 10.38450620362238 3.699409983152941 M 9.852542373601397 4.465137071326263 L 9.877728490943724 4.059919031879327 L 9.686629009841312 3.958869596836923 L 9.690040922289164 3.9039755274537176 L 10.368717517926173 4.268779692088058 L 10.365553744565437 4.319681465516122 L 9.646926755902667 4.597636949659679 L 9.65033866835052 4.5427428802764735 L 9.852542373601397 4.465137071326263 M 9.896638215782978 4.44884116072584 L 10.311274505259703 4.290257594588066 L 9.91940497702592 4.082548006841541 L 9.896638215782978 4.44884116072584 M 10.310863805892568 4.8873225816867905 L 10.258777942849735 5.159381514403735 Q 10.238282061724577 5.26643719550896 10.178195753423559 5.34096830012143 Q 10.118109445122542 5.415499404733901 10.031189875757883 5.446712197967805 Q 9.944270306393227 5.477924991201708 9.845071922983799 5.4589333949297725 Q 9.74587353957437 5.439941798657838 9.67662931723508 5.3788313439661355 Q 9.607385094895786 5.317720889274433 9.579076804119095 5.226266580063208 Q 9.550768513342405 5.134812270851983 9.571264394467564 5.027756589746759 L 9.623350257510396 4.755697657029813 L 10.310863805892568 4.8873225816867905 M 9.617195998645002 5.03247757880489 Q 9.598956544799679 5.12774731336642 9.62285515506839 5.207666687908669 Q 9.6467537653371 5.287586062450918 9.70700153369723 5.339847007788944 Q 9.76724930205736 5.39210795312697 9.854661738923093 5.408843122119071 Q 9.942074175788825 5.425578291111173 10.017364792681182 5.399266259491236 Q 10.092655409573537 5.3729542278713005 10.144383289626866 5.307513595041319 Q 10.196111169680194 5.242072962211337 10.214350623525517 5.146803227649808 L 10.256094528202444 4.928763216591461 L 9.65893990332193 4.814437567746545 L 9.617195998645002 5.03247757880489" fill="#1c578f" fill-rule="nonzero"></path></g><g><path d=" M -1.2888343349303746 8.130895198456125 L -1.4549117509710658 7.9494171229724815 L -1.4076979427151586 7.906209990344009 L -1.0255848635321045 8.32375710710719 L -1.0727986717880118 8.366964239735662 L -1.2388760878287033 8.18548616425202 L -1.7080633073717824 8.614857044747465 L -1.7580215544734537 8.560266078951571 L -1.2888343349303746 8.130895198456125 M -0.9649421243644372 9.06717490740944 L -1.2565096309249377 8.8081606430955 L -1.4435028052269612 8.892175836747915 L -1.5010686975478806 8.841037123024394 L -0.7969364228834721 8.530235353763139 L -0.7423609665272758 8.578717510929595 L -0.9680234868359909 9.314568329321421 L -1.026336988148091 9.262765476458632 L -0.9649421243644372 9.06717490740944 M -0.945279218770327 9.004386611178399 L -0.8211612129244861 8.611710255097654 L -1.196475839807066 8.781235860384848 L -0.945279218770327 9.004386611178399 M -0.32075907430642436 9.546245632703549 L -0.6406847820722581 9.323204063684386 L -0.8165374304284468 9.428564616388492 L -0.8797022496540089 9.384528204043683 L -0.21686808350405673 8.99331104160791 L -0.1569845535889135 9.035059848116624 L -0.2948124300718564 9.792293944327435 L -0.35879757162502324 9.747685630523602 L -0.32075907430642436 9.546245632703549 M -0.3085936896103415 9.481584953653632 L -0.2313728920550967 9.077064313358317 L -0.5842219916855214 9.289426063421738 L -0.3085936896103415 9.481584953653632 M 0.2236092741721889 9.28010123437123 L 0.2884319293833324 9.315794698358033 L -0.018338923260001416 9.872919140442997 L 0.32504595299362393 10.061998030751466 L 0.29417593008611864 10.118060867690835 L -0.11403160137865027 9.89328851339556 L 0.2236092741721889 9.28010123437123 M 0.6046277504021781 10.21491240280554 Q 0.544010104558565 10.139892398724108 0.5306968602528122 10.046940757931406 Q 0.5173836159470592 9.953989117138704 0.5556064002661631 9.860501049670738 Q 0.5938291845852671 9.76701298220277 0.6684502611652263 9.710013465274573 Q 0.7430713377451855 9.653013948346375 0.8388842206351024 9.641950880402849 Q 0.9346971035250191 9.63088781245932 1.0309620442841145 9.670245927005725 Q 1.1272269850432097 9.70960404155213 1.187108228160997 9.783782790009274 Q 1.2469894712787843 9.85796153846642 1.2605763060951751 9.95156521317886 Q 1.274163140911566 10.045168887891299 1.235940356592462 10.138656955359266 Q 1.197717572273358 10.232145022827234 1.1224444617736609 10.28941813026607 Q 1.0471713512739638 10.346691237704905 0.9524733145189728 10.357669936842344 Q 0.857775277763982 10.368648635979783 0.7615103370048866 10.329290521433379 Q 0.6652453962457913 10.289932406886974 0.6046277504021781 10.21491240280554 M 0.9395228944031282 10.290254904254477 Q 1.015731359079566 10.280899696525083 1.0760715741390037 10.233726521450885 Q 1.1364117891984409 10.186553346376689 1.167444148744644 10.110652143085863 Q 1.1984765082908473 10.034750939795037 1.1884692666417151 9.958816065629238 Q 1.1784620249925828 9.882881191463438 1.130636815998648 9.822814566914639 Q 1.082811607004713 9.76274794236584 1.005984779283512 9.731337139410536 Q 0.9291579515623107 9.699926336455233 0.852486674670685 9.709092322480076 Q 0.7758153977790591 9.718258308504922 0.7150123705044337 9.765242261874569 Q 0.6542093432298083 9.812226215244214 0.6231769836836051 9.88812741853504 Q 0.5921446241374019 9.964028621825864 0.6026146780017221 10.040152717696214 Q 0.6130847318660423 10.116276813566564 0.6613727530751652 10.176532659819914 Q 0.7096607742842881 10.236788506073264 0.7864876020054892 10.268199309028567 Q 0.8633144297266903 10.29961011198387 0.9395228944031282 10.290254904254477 M 1.4533028529129417 10.492691398774848 Q 1.3994934076629535 10.398010125009185 1.4371660359451632 10.253851278321545 L 1.5385534449462785 9.86588015401454 L 1.6101491137710124 9.884590049939934 L 1.50952021406417 10.269658647132422 Q 1.4786741694304142 10.387694749789416 1.516716980644425 10.459651295808072 Q 1.5547597918584355 10.53160784182673 1.6553807318283318 10.55790283069485 Q 1.7569691808364 10.584450655994393 1.825352363821318 10.5403061174324 Q 1.8937355468062362 10.496161578870408 1.924581591439992 10.378125476213416 L 2.0252104911468347 9.993056879020928 L 2.094871141895224 10.011261102083472 L 1.9934837328941089 10.399232226390476 Q 1.9558111046118989 10.543391073078116 1.8630429305788172 10.59976762748301 Q 1.7702747565457355 10.656144181887901 1.6386935273543328 10.621758427214207 Q 1.5071122981629301 10.587372672540512 1.4533028529129417 10.492691398774848 M 3.189431586237334 10.145879726512705 L 3.1328811607762677 10.843591736858071 L 3.072080542731886 10.838663771210749 L 2.6694380241697013 10.236166466448395 L 2.62355139322415 10.802309926271493 L 2.5497932664162115 10.796331738437036 L 2.606343691877278 10.09861972809167 L 2.66714430992166 10.103547693738992 L 3.070783559927195 10.706125784823433 L 3.116670190872746 10.139982325000336 L 3.189431586237334 10.145879726512705 M 3.8952405767470957 10.641029691402885 L 3.5055974419712057 10.65770984493988 L 3.4296722250231126 10.848131381094237 L 3.3527426830288984 10.851424642177184 L 3.642511133419634 10.13837888967728 L 3.715444335569993 10.13525670709215 L 4.0650902601961025 10.820929899941596 L 3.987161633240924 10.824265930648997 L 3.8952405767470957 10.641029691402885 M 3.865699105333842 10.582239373605308 L 3.681771453097277 10.213768725191157 L 3.5300065584499984 10.596609967421799 L 3.865699105333842 10.582239373605308 M 4.700662173582897 10.368770831427362 L 4.7707181267843985 10.35723118580763 L 4.814113695523397 10.620681037987923 Q 4.772754020238537 10.671073272115127 4.710383076361823 10.704656978877898 Q 4.648012132485108 10.738240685640667 4.574996068584952 10.75026792192039 Q 4.471392194132027 10.767333595019997 4.38103270444986 10.735597769453637 Q 4.2906732147676925 10.70386194388728 4.230065230659519 10.631247053800305 Q 4.169457246551345 10.55863216371333 4.153041694331724 10.45897510352528 Q 4.136626142112103 10.359318043337229 4.170741700360889 10.271100252130614 Q 4.204857258609675 10.182882460924 4.280263968052187 10.123841558398272 Q 4.355670677494699 10.064800655872544 4.460261255513842 10.047572452552942 Q 4.539197540811308 10.034570034953243 4.6094512003578405 10.048841451152061 Q 4.679704859904374 10.06311286735088 4.733219734950229 10.10497165554197 L 4.69547029124401 10.158823113274059 Q 4.600246417208195 10.091403429103844 4.473948360732249 10.112207297263364 Q 4.390078557603691 10.126022365963044 4.328584246567595 10.174157069765975 Q 4.267089935531499 10.222291773568905 4.239416756078734 10.294246239302277 Q 4.211743576625969 10.36620070503565 4.225071054665662 10.447110397465554 Q 4.238398532705354 10.528020089895456 4.287606966307622 10.586803846686013 Q 4.336815399909889 10.645587603476569 4.410087390772593 10.67203028403312 Q 4.483359381635296 10.698472964589673 4.567229184763854 10.684657895889991 Q 4.6737931699154345 10.667104632130396 4.739019305502011 10.601632873054887 L 4.700662173582897 10.368770831427362 M 5.238345118932254 10.558497371604512 Q 5.1439909999166735 10.538502366608423 5.0750410627965055 10.474759475466549 Q 5.006091125676338 10.411016584324674 4.976799349291757 10.314357431440762 Q 4.947507572907176 10.217698278556847 4.969474660776828 10.126403716558189 Q 4.991441748646479 10.03510915455953 5.058824231981208 9.966101177197162 Q 5.126206715315938 9.897093199834796 5.225736932146898 9.866931370686316 Q 5.325267148977858 9.836769541537837 5.418519237883773 9.85657605346405 Q 5.511771326789689 9.876382565390262 5.581344783361681 9.940458958395995 Q 5.650918239933673 10.004535351401728 5.680210016318254 10.101194504285642 Q 5.709501792702834 10.197853657169555 5.687201202969325 10.289771738620038 Q 5.664900613235815 10.381689820070521 5.598330142422785 10.44992926918708 Q 5.5317596716097555 10.51816871830364 5.4322294547787955 10.54833054745212 Q 5.3326992379478355 10.5784923766006 5.238345118932254 10.558497371604512 M 5.545765831776645 10.405776203084079 Q 5.599010600378629 10.35045672535226 5.616091240774808 10.275794139516673 Q 5.633171881170988 10.201131553681085 5.609390438957763 10.122655805795137 Q 5.585608996744539 10.044180057909188 5.529956017148862 9.991558808759027 Q 5.474303037553185 9.938937559608867 5.399306949853741 9.922480438664513 Q 5.324310862154295 9.906023317720159 5.244878092952663 9.930094777521349 Q 5.165445323751032 9.95416623732254 5.111722044491207 10.00963072384834 Q 5.057998765231381 10.065095210374142 5.0404396141773615 10.139902805003713 Q 5.022880463123341 10.214710399633283 5.046661905336565 10.293186147519231 Q 5.07044334754979 10.37166189540518 5.126574837803307 10.424138135761359 Q 5.182706328056825 10.476614376117535 5.258180926414112 10.492926488267907 Q 5.333655524771398 10.509238600418279 5.41308829397303 10.485167140617088 Q 5.492521063174661 10.461095680815896 5.545765831776645 10.405776203084079 M 6.072165483120091 10.238881664091508 Q 5.970696217113106 10.199334375233686 5.909023172382313 10.063697228575283 L 5.743044038576622 9.698660343944274 L 5.810407453695562 9.66803077810482 L 5.975144848345599 10.030336713474249 Q 6.02564224067551 10.141395316778446 6.100544426917523 10.173249084156371 Q 6.175446613159536 10.205102851534294 6.27011952089426 10.162055894138305 Q 6.3657027450495125 10.11859502369043 6.390935365065383 10.04121082060521 Q 6.416167985081253 9.963826617519988 6.365670592751342 9.852768014215792 L 6.200933198101304 9.490462078846361 L 6.266475980379191 9.460660339110676 L 6.432455114184882 9.825697223741685 Q 6.494128158915675 9.96133437040009 6.457684487212939 10.063589486618415 Q 6.4212408155102025 10.16584460283674 6.297437782318639 10.222136777893034 Q 6.173634749127075 10.278428952949328 6.072165483120091 10.238881664091508 M 7.250895645213536 9.692698508414223 L 6.996885833860925 9.584513408993779 Q 6.975435927805415 9.601183787820002 6.950712893388957 9.61634200569819 L 6.790439428896057 9.71460907332231 L 6.906478200239431 9.903868164372435 L 6.843391836556055 9.942547754820227 L 6.477503818806677 9.34578485511262 L 6.7008636469829534 9.208838197040711 Q 6.815101116355552 9.138796776500115 6.913345135660893 9.153632971117736 Q 7.011589154966233 9.168469165735356 7.070131237806134 9.263951229688573 Q 7.112992405599632 9.333857740797178 7.10714528083531 9.40371696446872 Q 7.101298156070987 9.47357618814026 7.048721666308485 9.535136830796535 L 7.319949637893987 9.650360037788937 L 7.250895645213536 9.692698508414223 M 7.027584295273831 9.441354041619931 Q 7.050428739084469 9.373389849673122 7.007044874122758 9.302630820136365 Q 6.962615614824619 9.230166753743298 6.891944380122455 9.22012550951404 Q 6.821273145420291 9.210084265284783 6.732611228892303 9.264444770778976 L 6.57404280125571 9.361666444066667 L 6.757509507298613 9.660900412348624 L 6.916077934935205 9.563678739060933 Q 7.004739851463192 9.50931823356674 7.027584295273831 9.441354041619931 M 7.606979119388474 9.389225246105866 Q 7.511985174387499 9.405918071305686 7.424217326495652 9.372540610700757 Q 7.3364494786038055 9.339163150095827 7.273175737204725 9.26043936938528 Q 7.209901995805644 9.181715588674734 7.196181268384113 9.08882322279344 Q 7.182460540962582 8.995930856912148 7.219192526061433 8.906749797988754 Q 7.255924511160284 8.81756873906536 7.336986621990945 8.75241557960492 Q 7.418048732821608 8.68726242014448 7.511949998105651 8.670806345945094 Q 7.6058512633896935 8.654350271745706 7.694322069311786 8.687804217693762 Q 7.782792875233879 8.721258163641817 7.84606661663296 8.799981944352364 Q 7.909340358032041 8.878705725062911 7.922984600110445 8.97230104897445 Q 7.93662884218885 9.06589637288599 7.900363064119811 9.154061237435577 Q 7.8640972860507725 9.242226101985166 7.78303517522011 9.307379261445606 Q 7.701973064389449 9.372532420906044 7.606979119388474 9.389225246105866 M 7.835111758108993 9.132735969233687 Q 7.863841738357914 9.061533172695231 7.8518001528525865 8.985894226255466 Q 7.839758567347259 8.910255279815699 7.78838780700345 8.846340923199216 Q 7.737017046659642 8.782426566582732 7.665737764778061 8.754399544364055 Q 7.5944584828964805 8.72637252214538 7.518743051113588 8.739117065680954 Q 7.443027619330695 8.751861609216528 7.37833381934084 8.803858842247456 Q 7.313640019350985 8.855856075278384 7.284520317415377 8.927372108160398 Q 7.25540061547977 8.998888141042412 7.267052479298412 9.07484032382574 Q 7.278704343117054 9.150792506609065 7.330075103460862 9.21470686322555 Q 7.381445863804671 9.278621219842032 7.453114867372937 9.306335005717148 Q 7.524783870941204 9.334048791592265 7.600889024410782 9.320991011713131 Q 7.676994177880361 9.307933231833998 7.741687977870216 9.25593599880307 Q 7.8063817778600715 9.203938765772142 7.835111758108993 9.132735969233687 M 8.261082582885903 8.781311387681797 Q 8.152185711073818 8.782524363172918 8.04431596582411 8.679737603034448 L 7.754008799078255 8.403110147896687 L 7.805057257133603 8.349537254282739 L 8.093192549814027 8.624095177337175 Q 8.181515428474862 8.70825614872572 8.262894331311092 8.709829099192662 Q 8.344273234147321 8.711402049659604 8.416017013035917 8.636110415391352 Q 8.488450635952288 8.560094823101291 8.482954576171306 8.478886490235237 Q 8.477458516390321 8.397678157369182 8.389135637729488 8.313517185980636 L 8.101000345049064 8.0389592629262 L 8.15066911504886 7.986834285355872 L 8.440976281794716 8.263461740493634 Q 8.548846027044423 8.366248500632103 8.553231528648602 8.474715165445215 Q 8.55761703025278 8.583181830258326 8.463798242475384 8.6816401212245 Q 8.36997945469799 8.780098412190675 8.261082582885903 8.781311387681797" fill="#589f43" fill-rule="nonzero"></path></g><g clip-path="url(#SvgjsClipPath1004)"><g clip-path="url(#SvgjsClipPath1003be61a544-66f4-45d7-a194-3bd2d4cc699e)"><path d=" M 3.783802652735927 2.86528557484299 L 3.783802652735927 2.2393934067212613 C 3.7834259136923105 2.128904976279324 3.8121624219603065 2.020266957217374 3.8671194673235454 1.924415205231432 C 3.9227457503402925 1.8281774846608323 4.003074954423812 1.7485498456784894 4.0997969129402385 1.6937698770437226 L 4.641356207759857 1.3808237929828484 C 4.7686753348697275 1.3136948798964683 4.838071790284654 1.1720275596707304 4.813070130507534 1.0302835364860994 C 4.803948376106619 0.9755240592745725 4.7850171259125425 0.9228607632801326 4.757186901210958 0.8748265531701493 C 4.729620516207798 0.8266644757633073 4.693461198086561 0.7839620429344172 4.650500736190208 0.7488352725742254 C 4.540144494066083 0.6568044153130316 4.3831317606693485 0.6461455874584305 4.261350248543102 0.7224177459976464 L 3.7208070124379655 1.0353638300585108 C 3.625251314062433 1.0913864821076993 3.516594902950237 1.1211793690255627 3.4058288109481265 1.1217288207895952 C 3.2950295977136443 1.121421872068572 3.1863111105355846 1.091611964293939 3.0908506094582875 1.0353638300585013 L 2.5492913146386784 0.7224177459976464 C 2.4276750363665824 0.6454902706736423 2.270244786824543 0.6561774416608331 2.1601408269915527 0.7488352725742158 C 2.119033618037314 0.7840458545071749 2.0846140450742143 0.8263819292517799 2.058534955543224 0.873810494455667 C 2.03070473084164 0.9218447045656405 2.0117734806475536 0.9745080005600805 2.002651726246638 1.0292674777716073 C 1.9773493673571423 1.1715892881243528 2.0472622804950062 1.3138826289814118 2.175381707708807 1.380823792982829 L 2.7169410025284257 1.6937698770437033 C 2.8132490223492193 1.748295552755448 2.893230317645772 1.8275752577423865 2.9486023894306275 1.92339914651694 C 3.0040136571538882 2.0190638180429317 3.0327832587491845 2.1278269460251638 3.031919204018255 2.2383773480067695 L 3.031919204018255 2.864269516128508 C 3.0254854810772076 3.00799359795533 3.1131256078456646 3.139248060110905 3.248339710203212 3.188392246048688 C 3.2999936096835483 3.207690971672855 3.3547539156112407 3.2173342959871647 3.4098930458060557 3.2168418900542317 C 3.465369331130831 3.217412780369518 3.5204769822930833 3.2077689414161292 3.5724624401233918 3.188392246048688 C 3.705091286645138 3.1373807217537286 3.7902137986332076 3.007241496695062 3.783802652735937 2.86528557484299 Z" fill="#589f43" transform="matrix(1,0,0,1,0,0)" fill-rule="evenodd"></path></g><g clip-path="url(#SvgjsClipPath1003be61a544-66f4-45d7-a194-3bd2d4cc699e)"><path d=" M 3.406844869662609 0 C 3.2860376039318724 -0.0005405300954223191 3.169992849876592 0.04707152573154568 3.0843778916129723 0.13230512560646368 C 2.998762933349343 0.21753872548139133 2.9506332976139444 0.3333697704037176 2.950634506859592 0.4541782453740523 C 2.9500944645198586 0.574809634559739 2.997567276914658 0.6907001498544725 3.0825810051935325 0.7762857193549516 C 3.1675947334724075 0.8618712888554307 3.2831643946812568 0.9101199454172775 3.403796693519162 0.9103886081770692 C 3.5245220924710248 0.9109287638943575 3.640517339571253 0.863488196726498 3.7262641887408288 0.7785035417717656 C 3.812011037910404 0.6935188868170237 3.860485365358198 0.5779518312106139 3.861023115036661 0.45722642151749926 C 3.861563154935582 0.33632555632162964 3.813983292525594 0.22017660346366447 3.728779016554988 0.13440048671473928 C 3.6435747405843824 0.0486243699658141 3.5277466424682324 0.00026866457599207473 3.4068448696625895 0 Z" fill="#589f43" transform="matrix(1,0,0,1,0,0)" fill-rule="evenodd"></path></g><g clip-path="url(#SvgjsClipPath1003be61a544-66f4-45d7-a194-3bd2d4cc699e)"><path d=" M 4.457449580438373 3.6913413097179495 L 4.999008875257993 3.3794112843715576 C 5.094503268473427 3.3231221487997975 5.203141523639786 3.292983794140747 5.3139870767478214 3.292030234925991 C 5.4251778833029505 3.292805299450139 5.5341893092615395 3.3229499381396574 5.6299813369521425 3.3794112843715576 L 6.170524573057279 3.6913413097179495 C 6.292372191824038 3.76877033012632 6.45039293399594 3.7580710090417657 6.560691119418878 3.66492378314138 C 6.601751542091884 3.6292731002384895 6.636154332303945 3.5866136403755386 6.6622969908672065 3.538932502545437 C 6.690114374684402 3.491256806411508 6.709048895210914 3.4389286769564342 6.718180220163783 3.3844915779439693 C 6.743181879940912 3.242747554759338 6.673785424525976 3.1010802345336006 6.546466297416115 3.03395132144722 L 6.004907002596497 2.722021296100838 C 5.908598982775693 2.667495620389093 5.8286176874791416 2.5882159154021642 5.773245615694286 2.492392026627611 C 5.717349769419796 2.396510974017943 5.688224773658428 2.2873799658036513 5.6889127423921755 2.17639776642329 L 5.6889127423921755 1.5505055983015605 C 5.695370105875259 1.4073215961544203 5.60816174439718 1.2765090539373014 5.473508294921711 1.2273989270958727 C 5.42158194459059 1.207698033944324 5.366476467122088 1.1977101661531566 5.310938900604384 1.1979332243758467 C 5.255062097640263 1.197608504310592 5.199605072352873 1.2075976579337846 5.147353447572566 1.2273989270958727 C 5.012158487372527 1.2767318364582396 4.924287429875015 1.4077171978680747 4.929916882673127 1.5515216570160428 L 4.929916882673127 2.1774138251377817 C 4.930781809601608 2.288154032827712 4.90239135341939 2.3971593645890583 4.8476161267999816 2.4934080853420832 C 4.791576580761574 2.5890626542781523 4.711323884596979 2.668264005078135 4.614938681183298 2.72303735481533 L 4.074395445078161 3.0349673801617123 C 3.9464386682114565 3.101548381771547 3.876503029772646 3.2434765891914967 3.9016654636159926 3.385507636658461 C 3.9105039251495266 3.440021179303902 3.9294573398604267 3.4924015254139933 3.9575486929125785 3.539948561259929 C 3.9836092340652396 3.587389614967306 4.018031343953045 3.6297288101292877 4.059154564360917 3.6649237831413704 C 4.170970711236741 3.762057265741639 4.333784311632079 3.7728561269923486 4.457449580438373 3.6913413097179495 Z" fill="#3ba2dc" transform="matrix(1,0,0,1,0,0)" fill-rule="evenodd"></path></g><g clip-path="url(#SvgjsClipPath1003be61a544-66f4-45d7-a194-3bd2d4cc699e)"><path d=" M 6.750694099027246 1.9325436749473004 C 6.690675568521343 1.8276382024462408 6.5914007381912585 1.750908330420506 6.474754541920257 1.7192690026738078 C 6.358108345649246 1.6876296749270903 6.233668014527022 1.7036786371471282 6.128866165763436 1.7638779283430706 C 5.911000240141409 1.8888445762526078 5.835522083133559 2.1666587565646354 5.960200419159216 2.384689802892369 C 6.02021894966511 2.489595275393438 6.119493779995195 2.566325147419163 6.236139976266206 2.597964475165871 C 6.352786172537208 2.6296038029125883 6.477226503659441 2.6135548406925504 6.582028352423016 2.553355549496608 C 6.686864583769136 2.4935333214763578 6.763575841138603 2.394440385550984 6.795222099799832 2.2779592768641734 C 6.826868358461062 2.1614781681773625 6.810846317620544 2.037190915553372 6.750694099027246 1.9325436749472906 Z" fill="#3ba2dc" transform="matrix(1,0,0,1,0,0)" fill-rule="evenodd"></path></g><g clip-path="url(#SvgjsClipPath1003be61a544-66f4-45d7-a194-3bd2d4cc699e)"><path d=" M 4.079475738650573 4.688094908626094 L 4.621035033470192 5.001040992686958 C 4.717135125198681 5.055840838605244 4.797052020952208 5.135056708957427 4.852696420372394 5.230670262160195 C 4.908237152628694 5.326651582056002 4.937009590906708 5.4357763174762574 4.936013234960031 5.546664522364496 L 4.936013234960031 6.171540631771763 C 4.930532008960924 6.315609873136723 5.018869361573426 6.446677852129236 5.154465858573943 6.495663361691943 C 5.206035630853569 6.5153762814134435 5.260810642757066 6.525366692389557 5.3160191941767865 6.525129064411969 C 5.371922522115006 6.525765805790335 5.427437037399951 6.5157662968259675 5.479604647208614 6.495663361691952 C 5.614470675360151 6.44682394610957 5.701798106507479 6.315832799388581 5.6950090946790795 6.172556690486245 L 5.6950090946790795 5.546664522364516 C 5.694287841169253 5.4359421948813695 5.722668765758156 5.326973459731385 5.7773098505522436 5.230670262160195 C 5.833867654886162 5.136032880810099 5.913593079762501 5.057356474682133 6.008971237454426 5.00205705140146 L 6.5515465909885275 4.689110967340586 C 6.679553305824787 4.621236606896586 6.748363719848181 4.477847241147223 6.7212283963072394 4.33552253470037 C 6.712456275448269 4.2811409331438695 6.693864561438085 4.228808701115186 6.666361225725136 4.1810816100989125 C 6.638434562224923 4.1331730650020475 6.602326081553321 4.0905306687803495 6.559675060704386 4.0550903295029785 C 6.448800238491194 3.962401843023985 6.29082267934772 3.951733228640274 6.168492455628305 4.028672802926399 L 5.6269331608086866 4.341618886987273 C 5.531415314913422 4.397731278120358 5.4227342631335675 4.427530921350319 5.311954959318857 4.427983877718358 C 5.201175655504137 4.427530921350319 5.0924946037242815 4.397731278120358 4.996976757829018 4.341618886987273 L 4.4564335217238815 4.028672802926409 C 4.334817243451786 3.951745327602386 4.177386993909746 3.9624324985895765 4.067283034076756 4.055090329502969 C 4.0241194916126695 4.089608403273576 3.9879142456417047 4.132020262839567 3.960596869056016 4.180065551384411 C 3.933208421253932 4.227940853421009 3.9143023116042617 4.280190465543718 3.9047136397594397 4.334506475985888 C 3.8787979982742837 4.477986820345871 3.949749957614634 4.6215407845926215 4.079475738650573 4.688094908626094 Z" fill="#9b7eb4" transform="matrix(1,0,0,1,0,0)" fill-rule="evenodd"></path></g><g clip-path="url(#SvgjsClipPath1003be61a544-66f4-45d7-a194-3bd2d4cc699e)"><path d=" M 6.748661981598291 5.793566789983952 C 6.809558850899909 5.689445109394021 6.8265352921308935 5.565375658030111 6.795847092930385 5.448722379081583 C 6.765158893729877 5.332069100133065 6.689327047663804 5.232414900819522 6.585076528566473 5.171738856720162 C 6.480676456871824 5.110879385187626 6.356361015023092 5.094030992984889 6.239528106184331 5.124906900377839 C 6.12269519734558 5.155782807770789 6.0229345877632765 5.231848688279939 5.962232536588191 5.336340368466453 C 5.901420630088542 5.440585345555659 5.8845991691948685 5.56474726380107 5.915481810909949 5.681415021391362 C 5.94636445262503 5.798082778981653 6.022411473180317 5.897661863902345 6.126834048334482 5.958168301730253 C 6.231079025423687 6.018980208229902 6.355240943669109 6.035801669123566 6.471908701259401 6.004919027408494 C 6.588576458849692 5.974036385693414 6.688155543770383 5.897989365138127 6.748661981598291 5.793566789983962 Z" fill="#9b7eb4" transform="matrix(1,0,0,1,0,0)" fill-rule="evenodd"></path></g><g clip-path="url(#SvgjsClipPath1003be61a544-66f4-45d7-a194-3bd2d4cc699e)"><path d=" M 3.0268389104458433 4.858792772659298 L 3.0268389104458433 5.483668882066545 C 3.027588729465599 5.594526117835305 2.998833071888678 5.703587209377069 2.943522095858216 5.799663142270856 C 2.88815002407336 5.895487031045419 2.8081687287768076 5.974766736032348 2.7118607089560145 6.029292411744093 L 2.170301414136386 6.342238495804957 C 2.0430712525474513 6.409527958278088 1.9734134853015377 6.550892250630085 1.9975714326742169 6.692778752301707 C 2.0071460409963255 6.747419127619424 2.02604947544741 6.800005045274257 2.0534546619708123 6.848235735617656 C 2.0795337515018026 6.895664300821544 2.1139533244649025 6.938000375566158 2.155060533419141 6.973210957499098 C 2.265164493252131 7.0658687884125 2.422594742794171 7.076555959399691 2.544211021066257 6.999628484075677 L 3.0857703158858762 6.686682400014803 C 3.18141935024061 6.630881493209451 3.2900152416252113 6.601105200410446 3.400748517375705 6.6003174092837185 C 3.5111431928590418 6.601235071550738 3.619378378898326 6.631008504603614 3.7147106601510522 6.686682400014803 L 4.256269954970671 6.999628484075677 C 4.377900256441088 7.077341169351041 4.535909051909886 7.067054138396044 4.6464365013322695 6.974227016213599 C 4.687300167516845 6.938387072725827 4.72167306599119 6.895764678617641 4.748042372780618 6.848235735617666 C 4.775724596261875 6.800226627288801 4.7943241416447915 6.747527915370556 4.802909543362711 6.692778752301697 C 4.827911203139821 6.551034729117076 4.758514747724894 6.409367408891337 4.631195620615025 6.342238495804957 L 4.089636325795415 6.029292411744093 C 3.993251122381725 5.974519062006908 3.9129984262171296 5.895317711206915 3.856958880178732 5.799663142270856 C 3.801418147922431 5.703681822375049 3.772645709644417 5.594557086954794 3.7736420655910945 5.483668882066554 L 3.7736420655910945 4.857776713944816 C 3.780025058103229 4.719495239266113 3.6992196116295304 4.591993177996065 3.5714463814089092 4.538734277597038 C 3.519876609129282 4.5190213578755465 3.4651015972257766 4.509030946899433 3.4098930458060654 4.509268574877031 C 3.3546844943863348 4.509030946899433 3.299909482482839 4.5190213578755465 3.248339710203202 4.538734277597047 C 3.112794988177044 4.585944752013447 3.0232687933266362 4.715305996866095 3.0268389104458433 4.858792772659298 Z" fill="#1c578f" transform="matrix(1,0,0,1,0,0)" fill-rule="evenodd"></path></g><g clip-path="url(#SvgjsClipPath1003be61a544-66f4-45d7-a194-3bd2d4cc699e)"><path d=" M 3.403796693519162 7.723062288787796 C 3.6549652704949533 7.723627287942652 3.8593455597844386 7.5210637123357325 3.861023115036661 7.2699001021282355 C 3.861563154935582 7.148999236932366 3.813983292525594 7.032850284074401 3.728779016554988 6.947074167325476 C 3.6435747405843824 6.861298050576551 3.5277466424682324 6.812942345186729 3.4068448696625895 6.812673680610737 C 3.2860376039318724 6.812133150515314 3.169992849876592 6.859745206342282 3.0843778916129723 6.9449788062172 C 2.998762933349343 7.030212406092128 2.9506332976139444 7.146043451014454 2.950634506859592 7.266851925984788 C 2.9500944645198586 7.387483315170466 2.997567276914658 7.503373830465209 3.0825810051935325 7.588959399965688 C 3.1675947334724075 7.674544969466167 3.2831643946812568 7.722793626028014 3.403796693519162 7.723062288787796 Z" fill="#1c578f" transform="matrix(1,0,0,1,0,0)" fill-rule="evenodd"></path></g><g clip-path="url(#SvgjsClipPath1003be61a544-66f4-45d7-a194-3bd2d4cc699e)"><path d=" M 2.7321818832456706 3.0349673801617123 L 2.189606529711579 2.72303735481533 C 2.093936903811913 2.6676726809230478 2.0141505557043824 2.588586213062083 1.9579451428093775 2.493408085342093 C 1.903304058015299 2.3971048877709027 1.8749231334263952 2.2881361526209187 1.8756443869362223 2.1774138251377817 L 1.8756443869362223 1.5525377157305251 C 1.8822019857398624 1.4085385702941255 1.7945969963794524 1.2769254407385637 1.6592238807512654 1.2273989270958534 C 1.6072253882827565 1.2079589566281577 1.552168029831264 1.1979798104088162 1.4966544864339393 1.1979332243758372 C 1.4411604606020973 1.198193615316295 1.3861403477233663 1.2081660107755645 1.334085092116613 1.2273989270958632 C 1.1988901319165732 1.2767318364582396 1.1110190744190713 1.4077171978680747 1.1166485272171836 1.5515216570160428 L 1.1166485272171836 2.176397766423299 C 1.117156070645921 2.2872242972882533 1.0884167700629002 2.3962233519384877 1.0333317126295558 2.492392026627611 C 0.9773843833681203 2.5877708191518978 0.8975383348225694 2.666916463762848 0.8016703257273544 2.7220212961008476 L 0.2590949721932531 3.03395132144723 C 0.13177584508338344 3.10108023453361 0.06237938966845705 3.242747554759348 0.08738104944556668 3.384491577943979 C 0.09588303648653104 3.4390918952975964 0.11485883236620642 3.491534094819611 0.1432642787421524 3.5389325025454466 C 0.17053283057049987 3.587593798475738 0.2067262906762307 3.6306812509825566 0.24995044376290254 3.6659398418558626 C 0.3606284314006913 3.7581437730512053 0.5180201904891456 3.768800506739489 0.6401169901245009 3.6923573684324418 L 1.1826923436585923 3.3794112843715673 C 1.2777557273891487 3.322981066036703 1.3861068285515592 3.292825096133895 1.4966544864339393 3.292030234926001 C 1.6072021443163191 3.292825096133895 1.7155532454787394 3.322981066036703 1.810616629209286 3.3794112843715673 L 2.3531919827433874 3.6913413097179495 C 2.4747584376395486 3.7678981530101514 2.6317595039453088 3.7576500416324876 2.7423424703905033 3.6659398418558626 C 2.7834975123608325 3.6303805116134407 2.817915007807477 3.5877028172595873 2.843948341838842 3.5399485612599384 C 2.8723537882147783 3.492550153534103 2.8913295840944535 3.4401079540120887 2.899831571135418 3.385507636658471 C 2.925550873850839 3.244712060889944 2.857929632240702 3.103322192068726 2.73218188324568 3.0349673801617123 Z" fill="#d21e5d" transform="matrix(1,0,0,1,0,0)" fill-rule="evenodd"></path></g><g clip-path="url(#SvgjsClipPath1003be61a544-66f4-45d7-a194-3bd2d4cc699e)"><path d=" M 0.06197958158347963 1.9294954988038437 C 0.0011201100509635191 2.0338955704984927 -0.015728282151783974 2.158211012347225 0.015147625241166291 2.275043921185986 C 0.04602353263411656 2.391876830024737 0.12208941314326587 2.4916374396070307 0.22658109332978013 2.552339490782126 C 0.4440817677592473 2.678481922461498 0.7226418156395248 2.6048657270999875 0.8494250853080622 2.3877379790358253 C 0.9755675169874246 2.170237304606358 0.9019513216259238 1.8916772567260804 0.6848235735617519 1.764893987057543 C 0.46732289913229447 1.638751555378171 0.18876285125201694 1.7123677507396815 0.06197958158347963 1.9294954988038437 Z" fill="#d21e5d" transform="matrix(1,0,0,1,0,0)" fill-rule="evenodd"></path></g><g clip-path="url(#SvgjsClipPath1003be61a544-66f4-45d7-a194-3bd2d4cc699e)"><path d=" M 2.352175924028905 4.030704920355374 L 1.810616629209286 4.343651004416238 C 1.7150987833140225 4.399763395549322 1.6064177315341674 4.429563038779284 1.495638427719457 4.430015995147323 C 1.3848392144849746 4.429709046426309 1.2761207273069148 4.399899138651667 1.1806602262296182 4.343651004416229 L 0.6391009314099991 4.030704920355374 C 0.5170860932289706 3.953935963212715 0.3594872393404418 3.964606718944752 0.24893438504840085 4.057122446931953 C 0.20652661762253427 4.092807551316437 0.17045639100989954 4.135404771316122 0.1422482200276604 4.1831137275278865 C 0.11484303350426761 4.231344417871267 0.09593959905318321 4.283930335526099 0.08636499073108436 4.338570710843817 C 0.06183861869079361 4.479975623809463 0.1311649050901799 4.621089484882779 0.25807891347875145 4.688094908626104 L 0.7996382082983704 5.001040992686958 C 0.8962595084798441 5.055501772149918 0.9765855377466979 5.134775495356509 1.0323156539150542 5.230670262160195 C 1.0872726992782928 5.326522014146128 1.116009207546289 5.435160033208087 1.1156324685026817 5.545648463650024 L 1.1156324685026817 6.171540631771763 C 1.1091987455616341 6.315264713598585 1.1968388723300916 6.44651917575416 1.3320529746876388 6.495663361691943 C 1.3840384325179376 6.515040057059375 1.4391460836801897 6.524683896012773 1.494622369004965 6.524113005697477 C 1.5500986543297401 6.524683896012773 1.6052063054919923 6.515040057059375 1.657191763322291 6.495663361691943 C 1.792386723522331 6.446330452329566 1.8802577810198424 6.315345090919731 1.8746283282217304 6.171540631771763 L 1.8746283282217304 5.544632404935552 C 1.8736319722750427 5.433744200047303 1.9024044105530478 5.324619464627037 1.957945142809358 5.228638144731221 C 2.013654233355817 5.133338084376337 2.093576991888723 5.054466941087295 2.1896065297115594 5.000024933972476 L 2.7311658245311783 4.687078849911611 C 2.8583220526549615 4.620308957329904 2.927740577857794 4.479007343899284 2.9028797472788552 4.337554652129334 C 2.894206655841979 4.28299832114337 2.875242331106549 4.230587823692744 2.8469965179822694 4.183113727527877 C 2.8212705496670307 4.135154917931813 2.7868107155881527 4.09242472367401 2.745390646533931 4.057122446931953 C 2.634515686148087 3.9624952699524254 2.474712118507581 3.9517591129533156 2.352175924028905 4.030704920355374 Z" fill="#ff9232" transform="matrix(1,0,0,1,0,0)" fill-rule="evenodd"></path></g><g clip-path="url(#SvgjsClipPath1003be61a544-66f4-45d7-a194-3bd2d4cc699e)"><path d=" M 0.06096352286899731 5.791534672554988 C 0.1859301707785345 6.009400598177035 0.4637443510905622 6.084878755184885 0.6817753974183051 5.960200419159218 C 0.7866808699193741 5.900181888653324 0.8634107419450993 5.800907058323239 0.8950500696918071 5.684260862052238 C 0.926689397438515 5.567614665781226 0.9106404352184772 5.443174334659003 0.8504411440225444 5.338372485895418 C 0.7254744961129976 5.12050656027338 0.4476603158009699 5.04502840326553 0.2296292694732271 5.169706739291188 C 0.12451694132759232 5.229531005813273 0.04760680614946448 5.328808702404 0.01594565041985943 5.445535372925202 C -0.01571550530974562 5.562262043446413 0.00048756477505700817 5.686795936235903 0.06096352286899731 5.791534672554988 Z" fill="#ff9232" transform="matrix(1,0,0,1,0,0)" fill-rule="evenodd"></path></g></g><g><path d=" M -2.283091194385893 3.8615311443939024 A 5.688411975976779 5.688411975976779 0 0 1 9.093732757567665 3.8615311443939024 A 5.688411975976779 5.688411975976779 0 0 1 -2.283091194385893 3.8615311443939024 Z M -2.233091194385893 3.8615311443939015 A 5.638411975976778 5.638411975976778 0 0 0 9.043732757567664 3.8615311443939015 A 5.638411975976778 5.638411975976778 0 0 0 -2.233091194385892 3.8615311443939015 Z" fill="#1c578f" fill-rule="nonzero"></path></g><g transform="matrix(-0.6232549117483227,-0.7820187433697421,0.7820187433697421,-0.6232549117483227,-9.583421974327997,9.232205913569514)"><g clip-path="url(#SvgjsClipPath1005)"><path d=" M -2.567858770606 7.143407872427814 C -2.4460339978473793 7.143407872427814 -2.345123401812897 7.042713164669194 -2.345123401812897 6.920672503634711 C -2.345123401812897 6.798848221531263 -2.4460339978473793 6.697937870824366 -2.567858770606 6.697937870824366 C -2.689899676968069 6.697937870824366 -2.790594139399104 6.798848221531263 -2.790594139399104 6.920672503634711 C -2.790594139399104 7.042713164669194 -2.6896840340197934 7.143407872427814 -2.567858770606 7.143407872427814 Z M -2.567858770606 7.099638977772642 L -2.567858770606 6.741924371048504 C -2.468888715778414 6.741924371048504 -2.389110638019793 6.821489013807125 -2.3888947497439315 6.920672503634711 C -2.3888947497439315 7.0198584467381595 -2.468672827502552 7.099638977772642 -2.567858770606 7.099638977772642 Z" fill="#1c578f" transform="matrix(1,0,0,1,0,0)" fill-rule="nonzero"></path></g></g><g transform="matrix(0.6232549117483227,-0.7820187433697421,-0.7820187433697421,-0.6232549117483227,8.948436548187058,18.574482648231207)"><g clip-path="url(#SvgjsClipPath1006)"><path d=" M 9.378500333787771 7.143407872427814 C 9.500325106546393 7.143407872427814 9.601235702580876 7.042713164669194 9.601235702580876 6.920672503634711 C 9.601235702580876 6.798848221531263 9.500325106546393 6.697937870824366 9.378500333787771 6.697937870824366 C 9.256459427425703 6.697937870824366 9.155764964994669 6.798848221531263 9.155764964994669 6.920672503634711 C 9.155764964994669 7.042713164669194 9.25667507037398 7.143407872427814 9.378500333787771 7.143407872427814 Z M 9.378500333787771 7.099638977772642 L 9.378500333787771 6.741924371048504 C 9.477470388615359 6.741924371048504 9.557248466373979 6.821489013807125 9.557464354649841 6.920672503634711 C 9.557464354649841 7.0198584467381595 9.477686276891221 7.099638977772642 9.378500333787771 7.099638977772642 Z" fill="#1c578f" transform="matrix(1,0,0,1,0,0)" fill-rule="nonzero"></path></g></g></g><defs><clipPath id="SvgjsClipPath1004"><path d=" M 0 0 h 6.810641563181771 v 7.723062288787803 h -6.810641563181771 Z"></path></clipPath><clipPath id="SvgjsClipPath1003be61a544-66f4-45d7-a194-3bd2d4cc699e"><path d=" M 0 0 L 6.810641563181771 0 L 6.810641563181771 7.723062288787803 L 0 7.723062288787803 Z"></path></clipPath><clipPath id="SvgjsClipPath1005"><path d=" M -2.9113173912956554 6.568831039324366 h 0.6869172413793103 v 0.71145 h -0.6869172413793103 Z"></path></clipPath><clipPath id="SvgjsClipPath1006"><path d=" M 9.035041713098117 6.568831039324366 h 0.6869172413793103 v 0.71145 h -0.6869172413793103 Z"></path></clipPath></defs></svg>